<?xml version="1.0" encoding="UTF-8" standalone="no"?>
<svg
   xmlns:dc="http://purl.org/dc/elements/1.1/"
   xmlns:cc="http://creativecommons.org/ns#"
   xmlns:rdf="http://www.w3.org/1999/02/22-rdf-syntax-ns#"
   xmlns:svg="http://www.w3.org/2000/svg"
   xmlns="http://www.w3.org/2000/svg"
   xmlns:sodipodi="http://sodipodi.sourceforge.net/DTD/sodipodi-0.dtd"
   xmlns:inkscape="http://www.inkscape.org/namespaces/inkscape"
   width="194.30621mm"
   height="167.91826mm"
   viewBox="0 0 194.30621 167.91826"
   version="1.1"
   id="svg8"
   inkscape:version="1.0 (4035a4fb49, 2020-05-01)"
   sodipodi:docname="logoOnly.svg"
   inkscape:export-filename="F:\Semesters\Vth Sem\Minor Project Lab - COC3950\Designing\logo.png"
   inkscape:export-xdpi="96"
   inkscape:export-ydpi="96">
  <defs
     id="defs2">
    <rect
       x="89.58036"
       y="58.964287"
       width="84.666664"
       height="37.041668"
       id="rect43" />
    <rect
       x="89.58036"
       y="58.964287"
       width="84.666664"
       height="37.041668"
       id="rect854" />
    <rect
       x="52.916668"
       y="105.83333"
       width="95.25"
       height="21.166668"
       id="rect879" />
    <rect
       x="52.916668"
       y="105.83333"
       width="95.25"
       height="21.166668"
       id="rect857" />
  </defs>
  <sodipodi:namedview
     fit-margin-bottom="0"
     fit-margin-right="0"
     fit-margin-left="0"
     fit-margin-top="0"
     showborder="true"
     id="base"
     pagecolor="#ffffff"
     bordercolor="#666666"
     borderopacity="1.0"
     inkscape:pageopacity="0.0"
     inkscape:pageshadow="2"
     inkscape:zoom="0.7"
     inkscape:cx="458.88641"
     inkscape:cy="292.81131"
     inkscape:document-units="mm"
     inkscape:current-layer="layer1"
     inkscape:document-rotation="0"
     showgrid="false"
     inkscape:window-width="1366"
     inkscape:window-height="715"
     inkscape:window-x="-8"
     inkscape:window-y="-8"
     inkscape:window-maximized="1" />
  <metadata
     id="metadata5">
    <rdf:RDF>
      <cc:Work
         rdf:about="">
        <dc:format>image/svg+xml</dc:format>
        <dc:type
           rdf:resource="http://purl.org/dc/dcmitype/StillImage" />
        <dc:title></dc:title>
      </cc:Work>
    </rdf:RDF>
  </metadata>
  <g
     transform="translate(-7.7824654,-91.995815)"
     inkscape:label="Layer 1"
     inkscape:groupmode="layer"
     id="layer1">
    <path
       d="M 185.49207,109.5798 C 175.43041,99.710754 161.52948,93.943191 146.85606,93.549385 132.18254,93.155577 117.94224,98.167892 107.27652,107.48063 l -2.42023,2.11094 C 83.895062,89.065086 48.880245,88.114059 26.648444,107.46739 4.4166417,126.82077 3.3866079,159.14986 24.347793,179.67628 l 5.449502,5.33179 c -2.300999,4.91884 -1.565658,10.59949 1.926054,14.8791 3.491718,4.27963 9.202529,6.49973 14.958141,5.81501 -0.974456,4.68287 0.548516,9.51279 4.093158,12.9809 3.544635,3.46814 8.678812,5.15171 13.798673,4.52475 -0.974504,4.68207 0.548111,9.51127 4.09216,12.97887 3.544061,3.46759 8.677446,5.15084 13.796472,4.52386 -1.268282,6.35892 2.032898,12.75033 8.182943,15.84298 6.150078,3.0926 13.756284,2.1861 18.854174,-2.24712 18.1979,-15.86284 17.62715,-15.07088 19.34584,-17.74414 5.32264,2.41816 11.65415,1.93859 16.47882,-1.24812 4.82456,-3.18675 7.36087,-8.56451 6.60107,-13.99643 5.07093,0.87753 10.29035,-0.53964 14.03956,-3.81196 3.74924,-3.2723 5.57485,-8.00419 4.91084,-12.72803 6.92772,1.17498 13.88357,-1.91896 17.20622,-7.65328 3.32272,-5.7343 2.25017,-12.79396 -2.65308,-17.46289 20.19093,-19.63221 20.21896,-50.41818 0.0638,-70.08177 z M 37.533094,197.16428 c -3.725508,-3.65476 -3.545809,-9.40366 0.401798,-12.85395 l 16.581266,-14.45557 c 3.964999,-3.38138 10.139305,-3.18534 13.843344,0.43953 3.704029,3.62486 3.557032,9.32731 -0.329609,12.78537 l -16.581264,14.45558 c -3.955573,3.4407 -10.18154,3.27472 -13.915511,-0.371 z m 17.891835,17.50566 c -3.72907,-3.65352 -3.549287,-9.40508 0.401786,-12.85397 L 72.407978,187.3604 c 3.954512,-3.44464 10.184694,-3.27723 13.915532,0.37387 3.730827,3.65116 3.549526,9.40342 -0.404986,12.84807 l -16.581274,14.4585 c -3.960162,3.43319 -10.182372,3.26069 -13.91231,-0.38567 z m 17.888632,17.50271 c -3.724287,-3.65458 -3.54316,-9.40256 0.404974,-12.85102 l 16.581264,-14.45558 c 3.979759,-3.22586 10.010521,-2.96643 13.648191,0.58712 3.63763,3.55355 3.57824,9.12746 -0.1344,12.61427 l -16.58131,14.45553 c -3.952873,3.44751 -10.184161,3.28412 -13.918698,-0.36508 z m 31.807389,17.87659 c -2.55814,2.22885 -6.209797,3.02832 -9.579443,2.09729 -3.369624,-0.93103 -5.945341,-3.45117 -6.756851,-6.61101 -0.811544,-3.15985 0.26456,-6.47942 2.822512,-8.70826 L 108.1885,222.36878 c 3.96498,-3.38138 10.13929,-3.18532 13.84337,0.43952 3.70399,3.62488 3.55702,9.3273 -0.32947,12.78536 z m 75.42234,-53.33835 c -1.8952,1.6596 -4.42859,2.55351 -7.03962,2.48389 -2.61099,-0.0696 -5.08426,-1.09702 -6.87264,-2.85486 l -42.4926,-41.57078 c -1.20903,-1.18293 -3.22765,-1.23697 -4.50886,-0.1207 -1.2812,1.11623 -1.3397,2.98006 -0.13076,4.16298 l 42.50226,41.56785 c 2.41453,2.36133 3.28126,5.73267 2.27362,8.84403 -1.00759,3.11133 -3.73641,5.49002 -7.1586,6.24 -3.42211,0.75002 -7.01772,-0.24253 -9.43227,-2.60396 L 105.18469,171.2856 c -0.7821,-0.7652 -1.9469,-1.08707 -3.05569,-0.84433 -1.10879,0.24272 -1.99311,1.0132 -2.319827,2.02114 -0.32667,1.00795 -0.0462,2.10024 0.735887,2.86545 l 42.48636,41.56196 c 3.35493,3.27946 3.5933,8.33577 0.55971,11.87198 -3.03366,3.53623 -8.41907,4.47984 -12.64488,2.21553 0.66159,-4.20573 -0.65855,-8.47178 -3.62684,-11.71992 -2.96825,-3.24818 -7.30064,-5.1677 -11.90218,-5.27344 -3.50757,-0.0855 -2.23209,1.13937 -2.1428,-2.09915 0.12711,-3.97145 -1.4611,-7.82664 -4.41449,-10.71638 -2.9534,-2.88973 -7.02982,-4.57699 -11.33139,-4.69013 -3.507577,-0.10299 -2.248035,1.17765 -2.142814,-2.09915 0.125274,-3.97152 -1.463845,-7.82624 -4.41753,-10.71572 -2.953718,-2.88949 -7.029947,-4.57687 -11.331487,-4.69078 -3.529896,-0.0913 -2.248036,1.20415 -2.142815,-2.09915 0.172094,-6.04803 -3.609381,-11.59902 -9.588288,-14.07499 -5.978928,-2.47598 -12.983702,-1.3918 -17.761232,2.74902 -22.799259,19.86978 -14.932718,13.0218 -16.632301,14.50266 l -4.521582,-4.41615 C 10.448154,157.47422 11.361128,128.87413 31.029676,111.75404 50.698221,94.633984 81.674281,95.476919 100.21663,113.63681 l -26.115505,22.76983 c -2.476416,2.19244 -3.934057,5.18705 -4.0656,8.35248 -0.318873,12.0915 19.160927,19.70498 31.064375,9.30344 l 23.80052,-20.73842 c 0.61474,-0.53661 1.43525,-0.82569 2.28087,-0.8036 0.84564,0.0217 1.64711,0.35351 2.22799,0.92137 6.25625,6.12083 45.53464,44.55331 51.53569,50.42092 1.79289,1.75253 2.75794,4.09114 2.68261,6.5009 -0.0758,2.40974 -1.1849,4.69305 -3.08433,6.34717 z m 0.5453,-21.28589 -47.04289,-46.02538 c -1.74165,-1.70344 -4.14491,-2.69827 -6.68108,-2.76565 -2.53612,-0.0673 -4.99738,0.79829 -6.84219,2.40646 l -23.803775,20.74429 c -2.527985,2.20321 -5.902251,3.38613 -9.376945,3.28724 -3.474683,-0.0989 -6.763651,-1.47144 -9.139856,-3.81424 -1.196325,-1.17102 -1.838768,-2.73347 -1.785528,-4.34248 0.05325,-1.60902 0.797791,-3.13234 2.069316,-4.23375 l 33.162598,-28.9201 c 19.20584,-16.787091 49.38026,-16.454699 68.14676,0.75069 18.76659,17.20541 19.3393,45.06236 1.29359,62.91292 z"
       id="Shape"
       style="fill:#16958a;fill-opacity:1;stroke:#16958a;stroke-width:3.06396;stroke-opacity:1" />
  </g>
</svg>
